<svg xmlns="http://www.w3.org/2000/svg" width="103" height="34" fill="none"><g clip-path="url(#a)"><path fill="#333" d="M32.891 5.667H19.805L13.262 17l6.543 11.334H32.89L39.434 17 32.891 5.667zm-.578 21.494-.049.085H20.432L14.517 17l5.915-10.246h.099l1.34 2.322L23.3 6.602h.19l-1.523 2.637.718 1.245 2.241-3.882h.251L22.81 10.7l.672 1.163L26.52 6.6h.376l-3.226 5.59.61 1.054L28.113 6.6h.503l-4.087 7.078.554.96 4.64-8.037h.628l-4.955 8.58.484.837 5.437-9.417h.753l-5.814 10.07.465.806 5.826-10.09.503.869-5.825 10.09 5.089 8.813h-.002z"/></g><path fill="#333" d="M88.853 22.905a7.756 7.756 0 0 1-1.653.133 3.788 3.788 0 0 1-1.44-.29 1.996 1.996 0 0 1-.969-.89 2.535 2.535 0 0 1-.307-1.126c-.01-.383-.015-.816-.015-1.299v-7.391h1.889v7.281c0 .341.002.64.008.897.01.258.065.467.165.63.189.315.49.49.905.527a6.05 6.05 0 0 0 1.417-.063v1.59zm-5.927-7.014v-1.488h5.927v1.488h-5.927zm-4.292 7.25c-1.05 0-1.903-.236-2.559-.708-.656-.473-1.054-1.136-1.196-1.992l1.936-.299c.1.42.32.75.662.992.34.241.77.362 1.29.362.457 0 .809-.09 1.055-.268a.877.877 0 0 0 .378-.747c0-.195-.047-.35-.142-.465-.089-.12-.288-.236-.598-.346-.31-.11-.784-.25-1.425-.417-.713-.19-1.28-.391-1.7-.606-.42-.22-.721-.48-.905-.78-.184-.299-.276-.66-.276-1.086 0-.53.14-.992.418-1.385.278-.394.666-.696 1.165-.905.498-.216 1.086-.323 1.763-.323.661 0 1.246.102 1.755.307.514.204.929.496 1.244.873.315.378.509.822.582 1.33l-1.936.347a1.219 1.219 0 0 0-.496-.858c-.278-.21-.65-.328-1.118-.354-.446-.026-.805.042-1.078.204-.273.158-.41.381-.41.67 0 .162.056.301.166.417.11.115.33.23.661.346.336.116.834.257 1.496.425.677.173 1.217.373 1.621.598.41.22.703.486.882.795.183.31.275.685.275 1.126 0 .855-.312 1.527-.937 2.015-.619.488-1.477.732-2.573.732zm-8.633-.001c-.86 0-1.616-.186-2.267-.559a3.979 3.979 0 0 1-1.527-1.55c-.362-.661-.543-1.422-.543-2.283 0-.929.178-1.734.535-2.416a3.912 3.912 0 0 1 1.488-1.598c.635-.378 1.37-.567 2.204-.567.882 0 1.63.207 2.243.622.62.41 1.079.989 1.378 1.74.299.75.412 1.634.338 2.652h-1.88v-.693c-.006-.923-.169-1.598-.489-2.023-.32-.425-.824-.637-1.511-.637-.777 0-1.354.241-1.732.724-.378.478-.567 1.178-.567 2.102 0 .86.19 1.527.567 1.999.378.472.929.709 1.653.709.467 0 .868-.103 1.204-.307.341-.21.604-.512.787-.906l1.874.567a3.797 3.797 0 0 1-1.511 1.787A4.134 4.134 0 0 1 70 23.14zm-2.928-3.959v-1.433h5.849v1.433h-5.849zm-7.861 3.968c-.63 0-1.149-.105-1.558-.315a2.753 2.753 0 0 1-.976-.803 3.496 3.496 0 0 1-.535-1.04 5.553 5.553 0 0 1-.229-1.038 8.84 8.84 0 0 1-.047-.803v-4.746h1.92v4.093c0 .262.02.559.056.89.037.325.12.64.252.944.136.299.336.546.598.74.268.194.627.29 1.078.29.242 0 .48-.038.717-.117.236-.079.448-.213.637-.402.194-.194.35-.459.465-.795.115-.335.173-.76.173-1.275l1.126.48c0 .725-.142 1.38-.426 1.968a3.347 3.347 0 0 1-1.235 1.41c-.546.346-1.218.519-2.016.519zm2.78-.244v-2.637h-.23v-5.864h1.906v8.5H61.99zm-8.886.236-3.235-3.22 1.189-1.188 3.22 3.22-1.174 1.188zm-4.077 0c-1.134 0-2.104-.246-2.913-.74a4.944 4.944 0 0 1-1.865-2.078c-.43-.887-.645-1.915-.645-3.085s.215-2.2.645-3.086c.436-.887 1.057-1.577 1.866-2.07.808-.499 1.778-.748 2.912-.748 1.133 0 2.104.25 2.912.748a4.825 4.825 0 0 1 1.866 2.07c.435.887.653 1.915.653 3.086 0 1.17-.218 2.198-.653 3.085a4.876 4.876 0 0 1-1.866 2.078c-.808.494-1.779.74-2.912.74zm0-1.787c.76.006 1.393-.162 1.897-.503.509-.342.89-.822 1.141-1.44.257-.62.386-1.344.386-2.174 0-.829-.129-1.547-.386-2.156-.252-.614-.632-1.092-1.141-1.433-.504-.34-1.136-.517-1.897-.527-.761-.005-1.393.162-1.897.504-.504.34-.884.82-1.142 1.44-.251.62-.377 1.343-.377 2.173 0 .829.126 1.55.377 2.164.252.609.63 1.084 1.134 1.425.509.341 1.144.517 1.905.527z"/><defs><clipPath id="a"><path fill="#fff" d="M13.262 5.667h26.172v22.667H13.262z"/></clipPath></defs></svg>