<svg xmlns="http://www.w3.org/2000/svg" width="20" height="21" fill="none"><path stroke="#3D3D3D" stroke-linecap="round" stroke-linejoin="round" stroke-width="1.5" d="M9.999 8.833a2.917 2.917 0 1 0 0-5.833 2.917 2.917 0 0 0 0 5.833zM5 3.522a2.915 2.915 0 0 0 .163 4.894M15 3.522a2.913 2.913 0 0 1 1.25 2.394c0 .991-.494 1.867-1.25 2.394M5 17.166V18h10v-.834c0-1.553 0-2.33-.254-2.942a3.333 3.333 0 0 0-1.804-1.804c-.612-.254-1.389-.254-2.942-.254-1.553 0-2.33 0-2.942.254a3.333 3.333 0 0 0-1.804 1.804C5 14.837 5 15.614 5 17.166zM18.332 18v-.5c0-1.867 0-2.8-.364-3.513a3.334 3.334 0 0 0-1.456-1.457M1.668 18v-.5c0-1.867 0-2.8.363-3.513.32-.627.83-1.137 1.457-1.457"/></svg>